<svg xmlns="http://www.w3.org/2000/svg" width="720" height="440" viewBox="0 0 720 440">
  <defs>
    <style>
      .t { font-family: "SF Mono", Menlo, Monaco, "DejaVu Sans Mono", monospace; font-size: 15px; white-space: pre; }
      .dim { fill: #8b8fa3; }
      .txt { fill: #e6e6ef; }
      .green { fill: #3fd68f; font-weight: 600; }
      .head { fill: #e6e6ef; font-weight: 700; letter-spacing: 1px; }
      .brand { fill: #d75fd7; font-weight: 700; }
      .orange { fill: #e8a15d; }
    </style>
  </defs>
  <!-- window -->
  <rect x="8" y="8" width="704" height="424" rx="14" fill="#15161c"/>
  <rect x="8" y="8" width="704" height="424" rx="14" fill="none" stroke="#2a2c37" stroke-width="1"/>
  <!-- title bar -->
  <path d="M8 22 a14 14 0 0 1 14 -14 h676 a14 14 0 0 1 14 14 v26 h-704 z" fill="#1d1f28"/>
  <circle cx="34" cy="28" r="6.5" fill="#ff5f57"/>
  <circle cx="56" cy="28" r="6.5" fill="#febc2e"/>
  <circle cx="78" cy="28" r="6.5" fill="#28c840"/>
  <text x="360" y="33" text-anchor="middle" class="t dim" font-size="13">ilan@mac — npx cache-refund</text>

  <!-- prompt -->
  <text x="44" y="86" class="t dim">$ <tspan class="txt">npx cache-refund card</tspan></text>

  <!-- receipt box: brand woven into the top border -->
  <rect x="44" y="112" width="524" height="168" rx="10" fill="none" stroke="#d75fd7" stroke-width="1.6"/>
  <rect x="64" y="103" width="142" height="18" fill="#15161c"/>
  <text x="135" y="117" text-anchor="middle" class="t brand" font-size="14">cache-refund</text>

  <text x="306" y="158" text-anchor="middle" class="t head">YOUR 1H CACHE RECEIPT</text>
  <text x="306" y="186" text-anchor="middle" class="t green">saved ≈$2,520.85 in API-value (last 90d)</text>
  <text x="306" y="228" text-anchor="middle" class="t txt">efficiency score: 98.5 / 100</text>
  <text x="306" y="254" text-anchor="middle" class="t dim">14.2B tokens · 573 sessions</text>

  <!-- wrapped line -->
  <text x="44" y="322" class="t"><tspan class="orange">›</tspan><tspan class="txt"> Model switches invalidated 64.1M tokens of cache </tspan><tspan class="orange">($477.79-eq)</tspan><tspan class="txt">.</tspan></text>

  <!-- share rail -->
  <text x="44" y="364" class="t dim">share: npx cache-refund card  ·  #cacherefund</text>

  <!-- footer note -->
  <text x="44" y="404" class="t dim" font-size="12.5">100% local · token counts + timestamps · nothing leaves this machine</text>
</svg>
